<svg width="18" height="18" viewBox="0 0 18 18" fill="none" xmlns="http://www.w3.org/2000/svg">
<path d="M7.41526 10.5834L7.41504 10.5832C6.61859 9.78641 5.81391 8.90195 5.29837 8.10931C5.04275 7.71628 4.83405 7.30988 4.75004 6.92418C4.66385 6.52846 4.69778 6.07864 5.04066 5.73439L5.04157 5.73349C5.10859 5.66655 5.17239 5.60372 5.2332 5.54384C5.42427 5.35569 5.58577 5.19666 5.72457 5.03063C5.89997 4.82083 5.9986 4.64448 6.03755 4.46622C6.11156 4.12748 6.01124 3.5578 5.10833 2.43516L5.10824 2.43505C4.68061 1.90306 4.32926 1.65819 4.05781 1.55952C3.80356 1.4671 3.5784 1.48758 3.34781 1.58493C3.10069 1.68927 2.84854 1.88252 2.57872 2.13895C2.41117 2.29819 2.26961 2.44769 2.12362 2.60189C2.01773 2.71372 1.90951 2.82801 1.78736 2.95026L1.78703 2.95059C1.63307 3.10438 1.4946 3.43169 1.50016 4.0052C1.50559 4.56548 1.64976 5.28896 1.96735 6.13231C2.60133 7.8158 3.90019 9.90699 5.99555 12.0024C8.09142 14.0973 10.1831 15.3967 11.867 16.0314C12.7106 16.3494 13.4343 16.494 13.9948 16.4998C14.5685 16.5058 14.8959 16.3675 15.0496 16.2139L15.0497 16.2137C15.1705 16.093 15.284 15.9855 15.3951 15.8803C15.5503 15.7332 15.7009 15.5905 15.8605 15.4224C16.1169 15.1523 16.3103 14.8996 16.4148 14.6517C16.5124 14.4203 16.533 14.1943 16.4405 13.9395C16.3418 13.6677 16.097 13.3162 15.565 12.8887L15.565 12.8887C14.4418 11.9861 13.8716 11.8858 13.5325 11.9598C13.3541 11.9988 13.1777 12.0974 12.968 12.2726C12.8023 12.411 12.6437 12.5719 12.4562 12.7621C12.396 12.8232 12.3328 12.8873 12.2655 12.9546C11.9216 13.2984 11.4718 13.3334 11.0754 13.2475C10.6894 13.1639 10.2828 12.9553 9.88969 12.6998C9.09682 12.1845 8.21215 11.3796 7.41526 10.5834Z" stroke="#D0A666"/>
</svg>
