<svg width="18" height="18" viewBox="0 0 18 18" fill="none" xmlns="http://www.w3.org/2000/svg">
<mask id="path-1-inside-1_1293_96" fill="white">
<path fill-rule="evenodd" clip-rule="evenodd" d="M9 17.3078C10.5 17.3078 15 9.75119 15 6.69238C15 3.63357 12.3137 0.692383 9 0.692383C5.68629 0.692383 3 3.63357 3 6.69238C3 9.75119 7.5 17.3078 9 17.3078ZM9 9.00008C10.2745 9.00008 11.3077 7.96689 11.3077 6.69238C11.3077 5.41788 10.2745 4.38469 9 4.38469C7.7255 4.38469 6.69231 5.41788 6.69231 6.69238C6.69231 7.96689 7.7255 9.00008 9 9.00008Z"/>
</mask>
<path d="M16 6.69238C16 7.65079 15.6606 8.84008 15.2047 10.0057C14.7378 11.1996 14.1048 12.4766 13.4284 13.6474C12.7535 14.8153 12.0182 15.9072 11.3372 16.721C10.9988 17.1254 10.6515 17.4882 10.312 17.7589C10.0173 17.9939 9.5504 18.3078 9 18.3078V16.3078C8.8246 16.3078 8.82647 16.3855 9.065 16.1953C9.2587 16.0408 9.50902 15.7893 9.8034 15.4375C10.388 14.7389 11.059 13.7505 11.6966 12.6468C12.3327 11.5461 12.9185 10.3604 13.3421 9.27723C13.7769 8.16572 14 7.26338 14 6.69238H16ZM9 -0.307617C12.8931 -0.307617 16 3.10875 16 6.69238H14C14 4.1584 11.7344 1.69238 9 1.69238V-0.307617ZM2 6.69238C2 3.10875 5.10694 -0.307617 9 -0.307617V1.69238C6.26564 1.69238 4 4.1584 4 6.69238H2ZM9 18.3078C8.4496 18.3078 7.98272 17.9939 7.68805 17.7589C7.34854 17.4882 7.00121 17.1254 6.66278 16.721C5.98178 15.9072 5.24646 14.8153 4.57165 13.6474C3.89515 12.4766 3.26222 11.1996 2.79526 10.0057C2.33936 8.84008 2 7.65079 2 6.69238H4C4 7.26338 4.22314 8.16572 4.65787 9.27723C5.08153 10.3604 5.66735 11.5461 6.30335 12.6468C6.94104 13.7505 7.61197 14.7389 8.1966 15.4375C8.49098 15.7893 8.7413 16.0408 8.935 16.1953C9.17353 16.3855 9.1754 16.3078 9 16.3078V18.3078ZM12.3077 6.69238C12.3077 8.51917 10.8268 10.0001 9 10.0001V8.00008C9.72222 8.00008 10.3077 7.4146 10.3077 6.69238H12.3077ZM9 3.38469C10.8268 3.38469 12.3077 4.86559 12.3077 6.69238H10.3077C10.3077 5.97016 9.72222 5.38469 9 5.38469V3.38469ZM5.69231 6.69238C5.69231 4.86559 7.17321 3.38469 9 3.38469V5.38469C8.27778 5.38469 7.69231 5.97016 7.69231 6.69238H5.69231ZM9 10.0001C7.17321 10.0001 5.69231 8.51917 5.69231 6.69238H7.69231C7.69231 7.4146 8.27778 8.00008 9 8.00008V10.0001Z" fill="#D0A666" mask="url(#path-1-inside-1_1293_96)"/>
</svg>
