<svg width="20" height="21" viewBox="0 0 20 21" fill="none" xmlns="http://www.w3.org/2000/svg">
<mask id="path-1-inside-1_366_288" fill="white">
<path fill-rule="evenodd" clip-rule="evenodd" d="M14.5823 12.0427C14.3328 11.9179 13.1095 11.3167 12.8817 11.233C12.6539 11.1501 12.4881 11.1091 12.3215 11.3586C12.1557 11.6065 11.6793 12.1675 11.5344 12.3333C11.3887 12.4999 11.2438 12.52 10.9952 12.3961C10.7465 12.2705 9.94429 12.0084 8.99391 11.161C8.25453 10.5012 7.75464 9.68643 7.60978 9.4369C7.46492 9.18821 7.59387 9.05339 7.71863 8.92947C7.83084 8.8181 7.96732 8.63891 8.09209 8.49405C8.21685 8.34835 8.25788 8.24452 8.34078 8.07789C8.42451 7.91209 8.38265 7.76723 8.31985 7.64247C8.25788 7.5177 7.7605 6.29267 7.55284 5.79445C7.35104 5.30963 7.14589 5.37578 6.99349 5.36741C6.8478 5.36071 6.682 5.35903 6.51621 5.35903C6.35041 5.35903 6.08079 5.421 5.85303 5.67053C5.62444 5.91922 4.98219 6.52127 4.98219 7.7463C4.98219 8.9705 5.87313 10.1537 5.99789 10.3203C6.12266 10.4861 7.75213 12.9998 10.2482 14.0775C10.8428 14.3337 11.3058 14.4869 11.6667 14.6008C12.2629 14.7909 12.8055 14.7641 13.2342 14.6996C13.7115 14.6284 14.7063 14.0976 14.9139 13.5164C15.1208 12.9353 15.1207 12.4371 15.0588 12.3333C14.9968 12.2294 14.831 12.1675 14.5815 12.0427H14.5823ZM10.0423 18.2416H10.0389C8.55634 18.2418 7.10099 17.8433 5.8254 17.0877L5.52396 16.9085L2.39062 17.7308L3.22712 14.6762L3.03035 14.363C2.20149 13.0436 1.76286 11.5167 1.76512 9.95856C1.76679 5.39504 5.47958 1.68226 10.0456 1.68226C12.2562 1.68226 14.3345 2.54472 15.897 4.10888C16.6676 4.87637 17.2785 5.78906 17.6941 6.79415C18.1098 7.79924 18.322 8.87678 18.3186 9.96442C18.3169 14.5279 14.6041 18.2416 10.0423 18.2416ZM17.086 2.92069C16.1634 1.99201 15.0657 1.25566 13.8564 0.754314C12.6472 0.252965 11.3505 -0.00341322 10.0414 3.43123e-05C4.55347 3.43123e-05 0.085409 4.46726 0.0837344 9.95772C0.0811914 11.7051 0.539563 13.4221 1.4126 14.9357L0 20.0963L5.27861 18.7113C6.73884 19.5069 8.37519 19.9238 10.0381 19.9238H10.0423C15.5302 19.9238 19.9983 15.4566 20 9.96526C20.004 8.65672 19.7485 7.36037 19.2484 6.15119C18.7482 4.94201 18.0132 3.844 17.086 2.92069Z"/>
</mask>
<path fill-rule="evenodd" clip-rule="evenodd" d="M14.5823 12.0427C14.3328 11.9179 13.1095 11.3167 12.8817 11.233C12.6539 11.1501 12.4881 11.1091 12.3215 11.3586C12.1557 11.6065 11.6793 12.1675 11.5344 12.3333C11.3887 12.4999 11.2438 12.52 10.9952 12.3961C10.7465 12.2705 9.94429 12.0084 8.99391 11.161C8.25453 10.5012 7.75464 9.68643 7.60978 9.4369C7.46492 9.18821 7.59387 9.05339 7.71863 8.92947C7.83084 8.8181 7.96732 8.63891 8.09209 8.49405C8.21685 8.34835 8.25788 8.24452 8.34078 8.07789C8.42451 7.91209 8.38265 7.76723 8.31985 7.64247C8.25788 7.5177 7.7605 6.29267 7.55284 5.79445C7.35104 5.30963 7.14589 5.37578 6.99349 5.36741C6.8478 5.36071 6.682 5.35903 6.51621 5.35903C6.35041 5.35903 6.08079 5.421 5.85303 5.67053C5.62444 5.91922 4.98219 6.52127 4.98219 7.7463C4.98219 8.9705 5.87313 10.1537 5.99789 10.3203C6.12266 10.4861 7.75213 12.9998 10.2482 14.0775C10.8428 14.3337 11.3058 14.4869 11.6667 14.6008C12.2629 14.7909 12.8055 14.7641 13.2342 14.6996C13.7115 14.6284 14.7063 14.0976 14.9139 13.5164C15.1208 12.9353 15.1207 12.4371 15.0588 12.3333C14.9968 12.2294 14.831 12.1675 14.5815 12.0427H14.5823ZM10.0423 18.2416H10.0389C8.55634 18.2418 7.10099 17.8433 5.8254 17.0877L5.52396 16.9085L2.39062 17.7308L3.22712 14.6762L3.03035 14.363C2.20149 13.0436 1.76286 11.5167 1.76512 9.95856C1.76679 5.39504 5.47958 1.68226 10.0456 1.68226C12.2562 1.68226 14.3345 2.54472 15.897 4.10888C16.6676 4.87637 17.2785 5.78906 17.6941 6.79415C18.1098 7.79924 18.322 8.87678 18.3186 9.96442C18.3169 14.5279 14.6041 18.2416 10.0423 18.2416ZM17.086 2.92069C16.1634 1.99201 15.0657 1.25566 13.8564 0.754314C12.6472 0.252965 11.3505 -0.00341322 10.0414 3.43123e-05C4.55347 3.43123e-05 0.085409 4.46726 0.0837344 9.95772C0.0811914 11.7051 0.539563 13.4221 1.4126 14.9357L0 20.0963L5.27861 18.7113C6.73884 19.5069 8.37519 19.9238 10.0381 19.9238H10.0423C15.5302 19.9238 19.9983 15.4566 20 9.96526C20.004 8.65672 19.7485 7.36037 19.2484 6.15119C18.7482 4.94201 18.0132 3.844 17.086 2.92069Z" fill="white"/>
<path d="M14.5823 12.0427V12.3427L14.7165 11.7744L14.5823 12.0427ZM12.8817 11.233L12.9852 10.9514L12.9843 10.9511L12.8817 11.233ZM12.3215 11.3586L12.5709 11.5254L12.571 11.5252L12.3215 11.3586ZM11.5344 12.3333L11.7603 12.5307L11.7603 12.5307L11.5344 12.3333ZM10.9952 12.3961L10.8599 12.6639L10.8614 12.6646L10.9952 12.3961ZM8.99391 11.161L8.79416 11.3848L8.79426 11.3849L8.99391 11.161ZM7.60978 9.4369L7.86923 9.28628L7.86901 9.2859L7.60978 9.4369ZM7.71863 8.92947L7.5073 8.71654L7.50722 8.71662L7.71863 8.92947ZM8.09209 8.49405L8.3194 8.68983L8.31996 8.68918L8.09209 8.49405ZM8.34078 8.07789L8.07299 7.94264L8.07218 7.94426L8.34078 8.07789ZM8.31985 7.64247L8.05115 7.77591L8.05188 7.77735L8.31985 7.64247ZM7.55284 5.79445L7.27587 5.90973L7.27593 5.90987L7.55284 5.79445ZM6.99349 5.36741L7.00995 5.06785L7.00727 5.06772L6.99349 5.36741ZM5.85303 5.67053L6.0739 5.87355L6.07461 5.87277L5.85303 5.67053ZM5.99789 10.3203L5.75775 10.5001L5.75818 10.5007L5.99789 10.3203ZM10.2482 14.0775L10.1293 14.3529L10.1295 14.353L10.2482 14.0775ZM11.6667 14.6008L11.7578 14.315L11.757 14.3147L11.6667 14.6008ZM13.2342 14.6996L13.19 14.4029L13.1896 14.4029L13.2342 14.6996ZM14.9139 13.5164L15.1964 13.6174L15.1966 13.617L14.9139 13.5164ZM14.5815 12.0427V11.7427L14.4473 12.311L14.5815 12.0427ZM10.0389 18.2416V17.9416H10.0389L10.0389 18.2416ZM5.8254 17.0877L5.67211 17.3456L5.67251 17.3458L5.8254 17.0877ZM5.52396 16.9085L5.67725 16.6506L5.56929 16.5865L5.44781 16.6183L5.52396 16.9085ZM2.39062 17.7308L2.10127 17.6515L1.96397 18.1529L2.46677 18.021L2.39062 17.7308ZM3.22712 14.6762L3.51647 14.7554L3.5513 14.6282L3.48114 14.5165L3.22712 14.6762ZM3.03035 14.363L2.77632 14.5226L2.77633 14.5226L3.03035 14.363ZM1.76512 9.95856L2.06512 9.959V9.95867L1.76512 9.95856ZM15.897 4.10888L15.6847 4.3209L15.6853 4.32145L15.897 4.10888ZM18.3186 9.96442L18.0186 9.96347V9.96431L18.3186 9.96442ZM10.0414 3.43123e-05V0.300035L10.0422 0.300033L10.0414 3.43123e-05ZM0.0837344 9.95772L0.383734 9.95816L0.383734 9.95782L0.0837344 9.95772ZM1.4126 14.9357L1.70195 15.0149L1.73499 14.8942L1.67247 14.7858L1.4126 14.9357ZM0 20.0963L-0.289355 20.0171L-0.426571 20.5184L0.076135 20.3865L0 20.0963ZM5.27861 18.7113L5.42214 18.4479L5.31762 18.3909L5.20248 18.4211L5.27861 18.7113ZM10.0381 19.9238L10.0381 20.2238H10.0381V19.9238ZM20 9.96526L19.7 9.96433V9.96517L20 9.96526ZM14.7165 11.7744C14.5903 11.7113 14.2208 11.5292 13.8542 11.3523C13.4969 11.1798 13.1166 10.9997 12.9852 10.9514L12.7782 11.5146C12.8745 11.55 13.2198 11.7124 13.5935 11.8927C13.9579 12.0685 14.3249 12.2494 14.4482 12.311L14.7165 11.7744ZM12.9843 10.9511C12.8792 10.9128 12.7157 10.8532 12.544 10.8732C12.3396 10.897 12.1873 11.0193 12.072 11.192L12.571 11.5252C12.5984 11.4841 12.6158 11.4703 12.62 11.4673C12.6214 11.4664 12.6173 11.4687 12.6134 11.4691C12.6132 11.4691 12.6239 11.4679 12.6539 11.4748C12.685 11.482 12.7234 11.4946 12.7791 11.5149L12.9843 10.9511ZM12.0722 11.1918C11.9192 11.4205 11.4565 11.9665 11.3085 12.1359L11.7603 12.5307C11.902 12.3685 12.3923 11.7924 12.5709 11.5254L12.0722 11.1918ZM11.3086 12.1358C11.2643 12.1864 11.2539 12.1774 11.2673 12.1758C11.2683 12.1757 11.2339 12.1798 11.129 12.1276L10.8614 12.6646C11.0051 12.7362 11.1675 12.7923 11.3395 12.7714C11.524 12.7491 11.6588 12.6468 11.7603 12.5307L11.3086 12.1358ZM11.1304 12.1283C10.8505 11.9869 10.1054 11.7501 9.19356 10.9371L8.79426 11.3849C9.78314 12.2666 10.6424 12.554 10.8599 12.6639L11.1304 12.1283ZM9.19366 10.9372C8.48975 10.309 8.00879 9.52669 7.86923 9.28628L7.35033 9.58752C7.50048 9.84616 8.01932 10.6933 8.79416 11.3848L9.19366 10.9372ZM7.86901 9.2859C7.84828 9.25032 7.84588 9.23343 7.84571 9.23209C7.84562 9.23143 7.84584 9.23285 7.84551 9.23559C7.84519 9.23827 7.8446 9.24012 7.84443 9.24057C7.8444 9.24065 7.84738 9.23269 7.86218 9.21435C7.87782 9.19494 7.89814 9.17401 7.93005 9.14231L7.50722 8.71662C7.4524 8.77107 7.33811 8.88005 7.28176 9.03222C7.21492 9.21274 7.24244 9.40229 7.35055 9.5879L7.86901 9.2859ZM7.92997 9.14239C8.05204 9.02123 8.21558 8.81037 8.3194 8.68983L7.86478 8.29827C7.71907 8.46745 7.60964 8.61497 7.5073 8.71654L7.92997 9.14239ZM8.31996 8.68918C8.47463 8.50855 8.53346 8.36411 8.60938 8.21151L8.07218 7.94426C7.9823 8.12493 7.95907 8.18815 7.86422 8.29892L8.31996 8.68918ZM8.60856 8.21313C8.7547 7.92379 8.66923 7.66934 8.58781 7.50759L8.05188 7.77735C8.07529 7.82386 8.08459 7.85474 8.087 7.87707C8.08884 7.89405 8.08782 7.91329 8.07299 7.94264L8.60856 8.21313ZM8.58853 7.50903C8.58854 7.50904 8.58846 7.50888 8.5883 7.50854C8.58813 7.5082 8.5879 7.50772 8.5876 7.50709C8.587 7.50581 8.5862 7.50411 8.58519 7.50192C8.58315 7.49751 8.58056 7.49179 8.57738 7.48465C8.57102 7.47034 8.56295 7.45184 8.55326 7.42927C8.53389 7.38418 8.509 7.32519 8.47986 7.25545C8.42162 7.1161 8.34741 6.93637 8.26841 6.74436C8.11083 6.36136 7.93393 5.92898 7.82975 5.67903L7.27593 5.90987C7.37941 6.15815 7.55503 6.58739 7.71354 6.97265C7.86784 7.34767 8.01397 7.70103 8.05116 7.77591L8.58853 7.50903ZM7.8298 5.67917C7.71572 5.40509 7.5746 5.22156 7.38271 5.13097C7.28897 5.08672 7.20168 5.07392 7.13424 5.06999C7.10205 5.06812 7.07228 5.06822 7.05212 5.06828C7.02882 5.06834 7.01851 5.06833 7.00995 5.06786L6.97704 5.66695C7.00657 5.66858 7.03601 5.66833 7.05389 5.66827C7.07491 5.66821 7.08774 5.6683 7.09937 5.66898C7.11957 5.67016 7.12475 5.67269 7.12657 5.67355C7.12787 5.67416 7.14249 5.68073 7.16804 5.71248C7.1952 5.74622 7.23274 5.80611 7.27587 5.90973L7.8298 5.67917ZM7.00727 5.06772C6.85452 5.0607 6.68319 5.05903 6.51621 5.05903V5.65903C6.68082 5.65903 6.84107 5.66072 6.97972 5.66709L7.00727 5.06772ZM6.51621 5.05903C6.28185 5.05903 5.92587 5.14572 5.63145 5.46828L6.07461 5.87277C6.23571 5.69627 6.41898 5.65903 6.51621 5.65903V5.05903ZM5.63216 5.4675C5.40156 5.71838 4.68219 6.39622 4.68219 7.7463H5.28219C5.28219 6.64631 5.84732 6.12005 6.0739 5.87355L5.63216 5.4675ZM4.68219 7.7463C4.68219 8.42587 4.92767 9.07682 5.17573 9.56564C5.42594 10.0587 5.69224 10.4126 5.75775 10.5001L6.23804 10.1405C6.17878 10.0614 5.93723 9.74036 5.71078 9.29412C5.48218 8.84365 5.28219 8.29092 5.28219 7.7463H4.68219ZM5.75818 10.5007C5.86618 10.6442 7.54455 13.2369 10.1293 14.3529L10.3672 13.802C7.9597 12.7626 6.37913 10.328 6.2376 10.1399L5.75818 10.5007ZM10.1295 14.353C10.737 14.6148 11.2106 14.7714 11.5764 14.8869L11.757 14.3147C11.401 14.2024 10.9486 14.0526 10.367 13.802L10.1295 14.353ZM11.5756 14.8866C12.2317 15.0958 12.8249 15.0645 13.2788 14.9963L13.1896 14.4029C12.7861 14.4636 12.2941 14.4859 11.7578 14.315L11.5756 14.8866ZM13.2785 14.9963C13.5734 14.9523 13.9819 14.7794 14.3371 14.5518C14.6851 14.3288 15.0578 14.0052 15.1964 13.6174L14.6314 13.4155C14.5624 13.6088 14.3339 13.8412 14.0133 14.0467C13.6999 14.2476 13.3723 14.3757 13.19 14.4029L13.2785 14.9963ZM15.1966 13.617C15.3087 13.3019 15.3658 13.0069 15.386 12.7716C15.3962 12.6543 15.3975 12.5473 15.3905 12.4569C15.3847 12.3831 15.3706 12.2703 15.3164 12.1795L14.8012 12.487C14.778 12.4481 14.7871 12.4366 14.7923 12.5035C14.7962 12.554 14.7963 12.6273 14.7883 12.7201C14.7723 12.9052 14.726 13.1498 14.6313 13.4158L15.1966 13.617ZM15.3164 12.1795C15.2413 12.0536 15.121 11.9801 15.0347 11.9328C14.9492 11.8859 14.8229 11.828 14.7157 11.7744L14.4473 12.311C14.5896 12.3822 14.671 12.4176 14.7463 12.4589C14.8208 12.4997 14.8143 12.5091 14.8012 12.487L15.3164 12.1795ZM14.5815 12.3427H14.5823V11.7427H14.5815V12.3427ZM10.0423 17.9416H10.0389V18.5416H10.0423V17.9416ZM10.0389 17.9416C8.6101 17.9418 7.20758 17.5577 5.97829 16.8296L5.67251 17.3458C6.99439 18.1288 8.50257 18.5418 10.039 18.5416L10.0389 17.9416ZM5.97869 16.8298L5.67725 16.6506L5.37066 17.1664L5.67211 17.3456L5.97869 16.8298ZM5.44781 16.6183L2.31447 17.4406L2.46677 18.021L5.6001 17.1987L5.44781 16.6183ZM2.67996 17.81L3.51647 14.7554L2.93778 14.5969L2.10127 17.6515L2.67996 17.81ZM3.48114 14.5165L3.28436 14.2034L2.77633 14.5226L2.9731 14.8358L3.48114 14.5165ZM3.28438 14.2034C2.48564 12.932 2.06294 11.4605 2.06512 9.959L1.46512 9.95813C1.46277 11.5728 1.91735 13.1553 2.77632 14.5226L3.28438 14.2034ZM2.06512 9.95867C2.06673 5.56079 5.64522 1.98226 10.0456 1.98226V1.38226C5.31393 1.38226 1.46686 5.22929 1.46512 9.95845L2.06512 9.95867ZM10.0456 1.98226C12.1765 1.98226 14.1784 2.813 15.6847 4.3209L16.1092 3.89686C14.4905 2.27644 12.3359 1.38226 10.0456 1.38226V1.98226ZM15.6853 4.32145C16.4278 5.06096 17.0164 5.94036 17.4169 6.9088L17.9714 6.6795C17.5405 5.63776 16.9074 4.69179 16.1087 3.89631L15.6853 4.32145ZM17.4169 6.9088C17.8174 7.87724 18.0219 8.91548 18.0186 9.96347L18.6186 9.96538C18.6222 8.83807 18.4022 7.72125 17.9714 6.6795L17.4169 6.9088ZM18.0186 9.96431C18.017 14.3623 14.4383 17.9416 10.0423 17.9416V18.5416C14.7699 18.5416 18.6168 14.6936 18.6186 9.96453L18.0186 9.96431ZM17.2988 2.70925C16.3483 1.75242 15.2172 0.993738 13.9713 0.477187L13.7415 1.03144C14.9141 1.51759 15.9786 2.23161 16.8732 3.13212L17.2988 2.70925ZM13.9713 0.477187C12.7254 -0.0393637 11.3894 -0.303517 10.0406 -0.299965L10.0422 0.300033C11.3116 0.29669 12.569 0.545295 13.7415 1.03144L13.9713 0.477187ZM10.0414 -0.299966C4.38775 -0.299966 -0.21454 4.30159 -0.216266 9.95763L0.383734 9.95782C0.385359 4.63293 4.71919 0.300034 10.0414 0.300034V-0.299966ZM-0.216265 9.95729C-0.218885 11.7574 0.253329 13.5263 1.15273 15.0856L1.67247 14.7858C0.825797 13.318 0.381268 11.6527 0.383734 9.95816L-0.216265 9.95729ZM1.12324 14.8565L-0.289355 20.0171L0.289355 20.1755L1.70195 15.0149L1.12324 14.8565ZM0.076135 20.3865L5.35475 19.0015L5.20248 18.4211L-0.076135 19.8061L0.076135 20.3865ZM5.13508 18.9748C6.63934 19.7943 8.32504 20.2238 10.0381 20.2238L10.0381 19.6238C8.42534 19.6238 6.83833 19.2195 5.42214 18.4479L5.13508 18.9748ZM10.0381 20.2238H10.0423V19.6238H10.0381V20.2238ZM10.0423 20.2238C15.6959 20.2238 20.2982 15.6222 20.3 9.96535L19.7 9.96517C19.6983 15.2909 15.3645 19.6238 10.0423 19.6238V20.2238ZM20.2999 9.96619C20.3041 8.61799 20.0409 7.28235 19.5256 6.03652L18.9712 6.26586C19.4562 7.43839 19.7039 8.69545 19.7 9.96433L20.2999 9.96619ZM19.5256 6.03652C19.0103 4.79069 18.253 3.6594 17.2977 2.70811L16.8743 3.13327C17.7735 4.0286 18.4861 5.09333 18.9712 6.26586L19.5256 6.03652Z" fill="#191D23" mask="url(#path-1-inside-1_366_288)"/>
</svg>
